<?xml version="1.0" encoding="utf-8"?><svg xmlns="http://www.w3.org/2000/svg" xmlns:xlink="http://www.w3.org/1999/xlink" width="1366" height="625" preserveAspectRatio="xMidYMid" viewBox="0 0 1366 625" style="z-index:1;margin-right:-2px;display:block;background-repeat-y:initial;background-repeat-x:initial;background-color:rgb(255, 255, 255);animation-play-state:paused" ><g transform="" style="animation-play-state:paused" ><linearGradient id="lg-0.6131173420091902" x1="0" x2="1" y1="0" y2="0" style="animation-play-state:paused" ><stop stop-color="#ff00ff" offset="0" style="animation-play-state:paused" ></stop>

  
<stop stop-color="#00ffff" offset="1" style="animation-play-state:paused" ></stop></linearGradient>
<path d="M 0 0 L 0 530.753 Q 136.6 569.247 273.2 555.711 T 546.4 431.39 T 819.6 407.443 T 1092.8 280.228 T 1366 187.943 L 1366 0 Z" fill="url(#lg-0.6131173420091902)" opacity="0.4" style="opacity:0.4;animation-play-state:paused" ></path>
<path d="M 0 0 L 0 593.521 Q 136.6 539.127 273.2 516.316 T 546.4 480.907 T 819.6 354.42 T 1092.8 305.694 T 1366 273.833 L 1366 0 Z" fill="url(#lg-0.6131173420091902)" opacity="0.4" style="opacity:0.4;animation-play-state:paused" ></path>
<path d="M 0 0 L 0 555.889 Q 136.6 576.656 273.2 538.387 T 546.4 392.386 T 819.6 349.518 T 1092.8 297.354 T 1366 239.771 L 1366 0 Z" fill="url(#lg-0.6131173420091902)" opacity="0.4" style="opacity:0.4;animation-play-state:paused" ></path>
<path d="M 0 0 L 0 559.11 Q 136.6 544.395 273.2 503.358 T 546.4 396.987 T 819.6 383.745 T 1092.8 366.86 T 1366 220 L 1366 0 Z" fill="url(#lg-0.6131173420091902)" opacity="0.4" style="opacity:0.4;animation-play-state:paused" ></path>
<path d="M 0 0 L 0 574.383 Q 136.6 543.129 273.2 516.559 T 546.4 443.784 T 819.6 388.061 T 1092.8 280.593 T 1366 249.201 L 1366 0 Z" fill="url(#lg-0.6131173420091902)" opacity="0.4" style="opacity:0.4;animation-play-state:paused" ></path></g></svg>